PathFileType	4	(X/Y/Z)	Patient4_TMGait_0pt6_02_right_26.trc.trc
DataRate	CameraRate	NumFrames	NumMarkers	Units	OrigDataRate	OrigDataStartFrame	OrigNumFrames
80.000000000000	80.000000000000	6	33	mm	80.000000000000	71	       141
Frame#	Time	Sacral			L.Shoulder			Chest			R.Shoulder			Neck			R.ASIS			L.ASIS			R.Thigh.Superior			R.Thigh.Lateral			R.Thigh.Inferior			R.Patella			L.Thigh.Superior			L.Thigh.Lateral			L.Thigh.Inferior			L.Patella			L.Shank.Superior			L.Shank.Lateral			L.Shank.Inferior			R.Shank.Superior			R.Shank.Lateral			R.Shank.Inferior			R.Heel			R.Midfoot.Superior			R.Midfoot.Lateral			R.Toe			L.Heel			L.Midfoot.Lateral			L.Midfoot.Superior			L.Toe			L.Elbow			L.Wrist			R.Elbow			R.Wrist			
		X1	Y1	Z1	X2	Y2	Z2	X3	Y3	Z3	X4	Y4	Z4	X5	Y5	Z5	X6	Y6	Z6	X7	Y7	Z7	X8	Y8	Z8	X9	Y9	Z9	X10	Y10	Z10	X11	Y11	Z11	X12	Y12	Z12	X13	Y13	Z13	X14	Y14	Z14	X15	Y15	Z15	X16	Y16	Z16	X17	Y17	Z17	X18	Y18	Z18	X19	Y19	Z19	X20	Y20	Z20	X21	Y21	Z21	X22	Y22	Z22	X23	Y23	Z23	X24	Y24	Z24	X25	Y25	Z25	X26	Y26	Z26	X27	Y27	Z27	X28	Y28	Z28	X29	Y29	Z29	X30	Y30	Z30	X31	Y31	Z31	X32	Y32	Z32	X33	Y33	Z33	

71	32.055000000000	846.517248311856	1006.155479642586	480.019224457772	1024.555802759934	1434.461688760659	305.741775992710	1137.583161084166	1355.524946283508	454.440050782114	1071.084710960532	1429.894342505485	634.721517776210	1040.571071211504	1488.758756571148	457.973167956635	1073.441076495687	938.812695478111	589.968551787527	1053.404645417386	954.893411109114	314.489429617980	1076.059211332570	728.192684570385	564.410463942392	972.730855056356	632.016981004292	621.902996044072	1039.163056420892	568.828358987281	545.034298988577	1022.192739396885	483.655208847749	549.604099723375	1129.323664354540	780.024332567419	340.148666117871	1082.468633907819	648.285285403953	263.450324527428	1191.959515459965	594.187402693709	316.942264400778	1216.946807648243	523.969010697455	313.594382103146	1196.496591970555	447.933002379862	307.811573951077	1117.752658695339	322.747539010655	263.451852879894	1198.966981960578	218.671836264901	317.128200266966	986.101184825000	397.455620879695	553.687780048338	899.899191883064	300.886364068147	608.813472305737	937.476636328091	203.255206038601	546.724763172824	794.357680143754	41.303056929240	507.520835227458	966.070215922716	97.133520088077	547.737923209184	876.111440360167	36.281197593527	584.085773646358	1084.358515070223	44.775280959580	576.911764158290	1104.849783042351	46.064873237959	362.216563960954	1175.079388477103	45.959987120019	278.954413038083	1250.471743458179	119.339373612626	296.314220957829	1381.101272619740	82.386645951212	264.662242094329	873.027526507043	1116.456226103491	199.891548612347	842.198519830678	856.767591968011	195.209950177589	1111.253863655228	1093.822669794118	762.866332893997	1342.310823328437	1120.455699122293	676.051344900326	
72	32.067500000000	847.220032268186	1005.016239811312	477.405788300779	1024.192935439901	1433.050486683080	302.835577727290	1137.187171307001	1354.903447097187	452.021536750817	1069.743671216450	1429.329131990021	632.006725971407	1039.674058311288	1487.842661383811	454.944092621785	1073.761413650988	937.661997434623	588.065611231852	1054.827310744446	953.576274518922	312.918441145955	1075.534866665576	726.647562683831	562.971639660449	971.377111471658	631.114933833761	620.346079659762	1037.265604203853	567.307461035169	543.443836340495	1019.548338610300	481.983581228684	547.785560300912	1130.263902149869	777.036435863742	340.375281962217	1081.852182091898	645.674735905782	264.680794582160	1190.190836658138	590.430666332090	319.438768543407	1213.440165138091	519.292680037821	317.040874717451	1191.988671729436	443.267506871632	310.760654837641	1111.471395676316	319.355133529409	265.882218309226	1189.959581756076	213.972912345003	321.112759967981	982.562515550847	396.177771723432	552.189711567283	895.584134254413	300.649350719042	608.022921235311	931.547333665882	202.563205775515	545.838653604179	786.891394196441	41.351730453930	507.445532003185	958.601610579267	96.984415176215	547.530148425483	868.589236907877	36.302315910650	584.014200774591	1076.857985781521	44.304968255004	577.004530914088	1091.618916540179	44.004074863306	365.134084835036	1162.816811939717	42.717823463749	282.597738766782	1239.775220811693	113.854397564642	301.504114029022	1370.094585808363	73.838717269420	271.174536404366	873.529820505548	1114.390606823302	197.645972249272	844.941672113354	854.382017606961	192.877180207557	1106.199777804533	1092.835411660967	760.875916070017	1336.926010919101	1116.661139305039	672.127878351973	
73	32.080000000000	847.952225944081	1003.946270597239	474.771314146624	1024.034243987318	1431.643594876488	299.777846200390	1136.941440898228	1354.295623344837	449.497664358316	1068.511122283507	1428.809650770406	629.158029017067	1038.953844383184	1486.979146039027	451.728192793857	1074.187044819905	936.514731951925	586.102380978320	1056.226549684544	952.349077970576	311.346341835819	1075.381437532908	725.143452222833	561.395956422977	970.535708577675	630.144350844626	618.642327776629	1035.966003204484	565.768764054086	541.716327702299	1017.545560525674	480.149432971278	545.839842804159	1130.993982190238	773.849067620490	340.557087413148	1080.834668713494	643.095015983357	265.726927546367	1187.914330849495	586.632051140243	321.947719323682	1209.477458601424	514.776341777849	320.455901139577	1187.207346317586	438.865319668053	313.523214724253	1105.276136194730	316.089925809029	267.964958106827	1181.180081450833	209.603895796260	324.713901687899	979.487484419482	394.827965303703	550.577022131302	891.611297533780	300.490328967734	607.130187790734	925.831189420184	201.908768113128	544.894958835688	779.466544620583	41.575341682894	507.347707055687	951.220594043808	96.877335357432	547.306953965658	861.109648671041	36.400077319401	583.904369803567	1069.398430257399	43.731324411675	577.103481173943	1078.983781068943	42.114765055460	367.532891942302	1151.046801858345	39.960282552637	285.634470087612	1229.384272003500	108.943395201937	306.204202092468	1359.429486365292	66.212952592689	276.977459244906	874.620987944447	1112.118538036128	195.189809057217	848.697359883082	851.746714189341	190.325334561427	1100.539586974429	1091.814295027502	758.725391267182	1331.239114567429	1111.426542796047	668.423916132180	
74	32.092500000000	848.653706197065	1003.024637959400	472.174928807131	1024.080022549494	1430.314064154445	296.607560120835	1136.846859451664	1353.744262861950	446.888557658190	1067.445812915614	1428.404917591494	626.201260130391	1038.445595820788	1486.232137165979	448.361819159654	1074.672380195935	935.433601692640	584.084219114059	1057.494679218186	951.306835520728	309.749471666267	1075.549071181848	723.755917282747	559.668502264201	970.184170735446	629.160594044702	616.802144678681	1035.277830942389	564.272944937347	539.890805452633	1016.228501706093	478.189346876187	543.847398260389	1131.457430137388	770.698000845007	340.586873848216	1079.510360393003	640.741885643719	266.453769525814	1185.246603634105	583.060527495345	324.281641531603	1205.242497358719	510.700273858243	323.623775556306	1182.363753707141	434.963749142018	315.941609134989	1099.418330057534	313.159430111988	269.553922102053	1172.906704670395	205.790320465532	327.767433332934	976.886186672651	393.460623657585	548.903365647034	887.965288078748	300.479820314457	606.146009765803	920.343200730313	201.357277577427	543.929177149356	772.090794463778	42.068749616291	507.230964955337	943.955841403779	96.833749825470	547.077033990083	853.684014128720	36.617478129788	583.755887176857	1061.989036603701	43.062004618190	577.208452305146	1067.307643950653	40.521612717272	369.373247344015	1140.079621851864	37.806293704086	287.985264414299	1219.569054323372	104.830533514556	310.200058731026	1349.376762212793	59.826075279802	281.786743793723	876.340501621478	1109.708810768366	192.540210170718	853.464346397083	848.948091148931	187.539791730174	1094.308145154598	1090.843334727868	756.373265099008	1325.233871934984	1104.729916100665	664.962061932433	
75	32.105000000000	849.274822560056	1002.324080206402	469.662106374553	1024.311792197878	1429.137724612458	293.372513120106	1136.892045309425	1353.294158598555	444.216950304523	1066.599437231647	1428.181593341624	623.168569906914	1038.169332399139	1485.662186691708	444.895061324375	1075.169702308923	934.484247147673	582.005838694714	1058.541865133606	950.536439454747	308.086543055326	1075.972736679439	722.564905857773	557.789414560445	970.282016018827	628.229032751605	614.851410749397	1035.199453950776	562.888741918010	538.025066473744	1015.630991895740	476.152610863485	541.918020886652	1131.636030272613	767.835882093333	340.347323016257	1078.001854484660	638.797800746628	266.746737345523	1182.331589505912	579.947404256731	326.238404439651	1200.915675114711	507.273040446104	326.327843053321	1177.632512741597	431.727945277058	317.884781946351	1094.057317042067	310.726174369902	270.537226993244	1165.289219742736	202.680517915727	330.160214420504	974.766892238586	392.139278774105	547.245002605209	884.629411286124	300.693876908521	605.096984867221	915.100406619874	200.980453542637	542.990722274616	764.772614569620	42.939856266790	507.106466077254	936.837819482515	96.872026658499	546.853441602034	846.323094589387	37.003230851394	583.575776237668	1054.637417949574	42.314288131628	577.317902566638	1056.759871077235	39.300394014933	370.658315610784	1130.059331417441	36.286893387433	289.638400674634	1210.458627489215	101.631829116964	313.352175353373	1340.065047609509	54.833629374218	285.446409584404	878.693031166544	1107.245502779317	189.724592166306	859.237985816344	846.088539694754	184.506108007114	1087.561797665988	1090.010981060958	753.782763432548	1318.874429685270	1096.553784870102	661.765689594244	
76	32.117500000000	849.783104306893	1001.901481988444	467.253790872844	1024.693651081698	1428.185253911919	290.125282114168	1137.053313316590	1352.987095124821	441.507325314138	1066.006776717738	1428.194377057260	620.096625021906	1038.124592406817	1485.319171672232	441.388549104077	1075.635735054569	933.727932338743	579.852612603066	1059.310820843646	950.105129734306	306.304180877479	1076.584442720983	721.645712395269	555.776609916593	970.780906216898	627.417369425021	612.830098906374	1035.720791259176	561.685480127957	536.190507233243	1015.778916805311	474.096829535038	540.181741010551	1131.551433974282	765.486014579267	339.723073489865	1076.415798598972	637.390743322202	266.532894053970	1179.299854886875	577.437495279002	327.625043829906	1196.632329476490	504.596338191564	328.379993924688	1173.114981705674	429.227138612889	319.266926926996	1089.231451618530	308.877701943169	270.868324463368	1158.341613205585	200.328769257596	331.850245086817	973.142521393916	390.929619119895	545.695265291503	881.594669511799	301.207318080490	604.025214413642	910.125111902322	200.849729310720	542.140733583993	757.522732876170	44.302772084095	506.994960438289	929.898062873325	97.004854720018	546.654971336953	839.036833775929	37.607910281020	583.379452422957	1047.348338288254	41.515363726873	577.428024142452	1047.328456363730	38.470657874279	371.434076961098	1120.975495980902	35.354807541030	290.647247453741	1202.050604619428	99.351345862031	315.617795594887	1331.491203369847	51.226843141623	287.943967713600	881.641626748492	1104.822738367428	186.777442921985	866.005844359242	843.282050976954	181.213583970765	1080.382165629284	1089.400201331423	750.925910139299	1312.104549506808	1086.892304145688	658.859314762413	
